Coordinates
version=1
nRows=65
nColumns=12
inDegrees=yes

Units are S.I. units (second, meters, Newtons, ...)
Angles are in degrees

endheader
time	SC_y	SC_z	SC_x	AC_y	AC_z	AC_x	GH_y	GH_z	GH_yy	EL_x	PS_y
       0.0              -12.73          10.42          55.76          58.77         -16.71          10.13         -141.3          6.495          49.01          101.1          124.2
   0.03236              -12.73          10.42          55.76          58.77         -16.71          10.13         -141.3          6.493          48.98          101.1          124.2
   0.06472              -12.74          10.42          55.76          58.77         -16.71          10.13         -141.2          6.491          48.96          101.1          124.2
   0.09708              -12.75          10.41          55.76          58.77         -16.71          10.13         -141.2          6.489          48.93          101.1          124.2
    0.1294              -12.75          10.41          55.76          58.77          -16.7          10.13         -141.1          6.486           48.9          101.1          124.2
    0.1618              -12.76          10.41          55.76          58.77          -16.7          10.12         -141.1          6.484          48.86          101.1          124.2
    0.1942              -12.77          10.41          55.76          58.77          -16.7          10.12         -141.0          6.481          48.83          101.1          124.2
    0.2265              -12.78           10.4          55.76          58.77         -16.69          10.12         -140.9          6.478          48.79          101.1          124.1
    0.2589              -12.79           10.4          55.76          58.77         -16.69          10.12         -140.9          6.475          48.75          101.1          124.1
    0.2912               -12.8           10.4          55.76          58.77         -16.68          10.12         -140.8          6.472          48.71          101.2          124.1
    0.3236              -12.81          10.39          55.76          58.77         -16.68          10.12         -140.7          6.468          48.66          101.2          124.1
    0.3559              -12.83          10.39          55.75          58.77         -16.67          10.12         -140.6          6.464          48.61          101.2          124.1
    0.3883              -12.84          10.38          55.75          58.77         -16.67          10.12         -140.5           6.46          48.56          101.2          124.1
    0.4207              -12.85          10.38          55.75          58.77         -16.66          10.11         -140.4          6.455           48.5          101.2          124.1
     0.453              -12.87          10.37          55.75          58.77         -16.66          10.11         -140.3           6.45          48.44          101.2          124.0
    0.4854              -12.89          10.37          55.75          58.77         -16.65          10.11         -140.2          6.445          48.37          101.2          124.0
    0.5177              -12.91          10.36          55.75          58.77         -16.64          10.11         -140.1          6.439           48.3          101.2          124.0
    0.5501              -12.93          10.36          55.75          58.77         -16.64          10.11         -139.9          6.433          48.22          101.3          124.0
    0.5825              -12.95          10.35          55.74          58.77         -16.63          10.11         -139.8          6.426          48.13          101.3          124.0
    0.6148              -12.97          10.34          55.74          58.77         -16.62           10.1         -139.6          6.419          48.03          101.3          123.9
    0.6472               -13.0          10.33          55.74          58.77         -16.61           10.1         -139.4           6.41          47.93          101.3          123.9
    0.6795              -13.03          10.32          55.74          58.77          -16.6           10.1         -139.2          6.401          47.81          101.3          123.9
    0.7119              -13.06          10.31          55.73          58.77         -16.58          10.09         -139.0          6.391          47.68          101.4          123.8
    0.7443               -13.1           10.3          55.73          58.77         -16.57          10.09         -138.7           6.38          47.54          101.4          123.8
    0.7766              -13.14          10.29          55.73          58.77         -16.55          10.09         -138.4          6.368          47.39          101.4          123.7
     0.809              -13.18          10.27          55.72          58.77         -16.54          10.08         -138.1          6.354          47.21          101.5          123.7
    0.8413              -13.23          10.26          55.72          58.77         -16.52          10.08         -137.8          6.338          47.01          101.5          123.6
    0.8737              -13.29          10.24          55.71          58.77          -16.5          10.07         -137.4          6.321          46.79          101.5          123.6
    0.9061              -13.35          10.22          55.71          58.77         -16.47          10.06         -136.9          6.301          46.54          101.6          123.5
    0.9384              -13.42          10.19           55.7          58.77         -16.44          10.06         -136.4          6.279          46.26          101.7          123.4
    0.9708               -13.5          10.17          55.69          58.77         -16.41          10.05         -135.9          6.253          45.93          101.7          123.3
     1.003               -13.6          10.14          55.68          58.77         -16.37          10.04         -135.2          6.224          45.56          101.8          123.2
     1.035               -13.7           10.1          55.67          58.77         -16.33          10.03         -134.4           6.19          45.13          101.9          123.1
     1.068              -13.83          10.06          55.66          58.77         -16.28          10.01         -133.5          6.151          44.63          102.0          122.9
       1.1              -13.98          10.01          55.65          58.77         -16.23          9.997         -132.5          6.105          44.04          102.1          122.8
     1.133              -14.15          9.953          55.63          58.77         -16.16          9.978         -131.3          6.051          43.35          102.3          122.6
     1.165              -14.36          9.886          55.61          58.78         -16.08          9.956         -129.8          5.987          42.53          102.4          122.3
     1.197               -14.6          9.804          55.59          58.78         -15.98           9.93         -128.1          5.909          41.55          102.6          122.0
      1.23               -14.9          9.706          55.57          58.78         -15.87          9.899         -126.0          5.816          40.36          102.9          121.7
     1.262              -15.27          9.586          55.53          58.78         -15.72           9.86         -123.4          5.702          38.91          103.2          121.3
     1.294              -15.72          9.437          55.49          58.78         -15.55          9.813         -120.2          5.561          37.12          103.5          120.7
     1.327              -16.28          9.252          55.44          58.78         -15.33          9.753         -116.3          5.386          34.89          104.0          120.1
     1.359              -16.99          9.019          55.37          58.78         -15.05          9.679         -111.3          5.165          32.07          104.6          119.3
     1.391              -17.89          8.723          55.29          58.79          -14.7          9.584         -104.9          4.884           28.5          105.3          118.2
     1.424              -19.04          8.344          55.19          58.79         -14.25          9.462         -96.81          4.524          23.92          106.3          116.9
     1.456              -20.52          7.857          55.05           58.8         -13.67          9.306         -86.39          4.062          18.04          107.5          115.2
     1.489              -22.41          7.236          54.88           58.8         -12.94          9.107         -73.07          3.472          10.54          109.0          113.0
     1.521              -24.79          6.455          54.66          58.81         -12.01          8.856         -56.33          2.731          1.099          111.0          110.2
     1.553              -27.69          5.502           54.4          58.82         -10.88          8.551         -35.93          1.827          -10.4          113.4          106.9
     1.586              -31.04          4.398           54.1          58.83         -9.576          8.197         -12.29         0.7799         -23.73          116.1          103.0
     1.618              -34.68          3.203          53.76          58.84          -8.16          7.813          13.32        -0.3542         -38.17          119.1          98.76
      1.65              -38.31          2.008          53.43          58.85         -6.743           7.43          38.92         -1.488          -52.6          122.1          94.55
     1.683              -41.67         0.9042          53.13          58.86         -5.435          7.076          62.57         -2.536         -65.93          124.8          90.66
     1.715              -44.57       -0.04813          52.86          58.87         -4.307          6.771          82.97         -3.439         -77.43          127.2           87.3
     1.747              -46.94        -0.8296          52.65          58.88         -3.381           6.52          99.71         -4.181         -86.87          129.2          84.55
      1.78              -48.83         -1.451          52.48          58.89         -2.644          6.321          113.0         -4.771         -94.37          130.7          82.36
     1.812              -50.31         -1.938          52.34          58.89         -2.068          6.165          123.4         -5.232         -100.3          131.9          80.64
     1.844              -51.46         -2.317          52.24           58.9         -1.618          6.043          131.6         -5.592         -104.8          132.9          79.31
     1.877              -52.37         -2.613          52.15           58.9         -1.267          5.948          137.9         -5.873         -108.4          133.6          78.26
     1.909              -53.07         -2.846          52.09           58.9        -0.9913          5.873          142.9         -6.094         -111.2          134.2          77.44
     1.942              -53.64         -3.031          52.04           58.9        -0.7721          5.814          146.9          -6.27         -113.5          134.7          76.79
     1.974              -54.09         -3.179           52.0           58.9        -0.5964          5.767          150.0          -6.41         -115.2          135.0          76.26
     2.006              -54.45         -3.299          51.96          58.91        -0.4539          5.728          152.6         -6.524         -116.7          135.3          75.84
     2.039              -54.75         -3.398          51.94          58.91        -0.3374          5.696          154.7         -6.618         -117.9          135.6          75.49
     2.071               -55.0         -3.479          51.91          58.91         -0.241           5.67          156.5         -6.695         -118.9          135.8          75.21
